Coordinates
version=1
nRows=14
nColumns=33
inDegrees=yes

Units are S.I. units (second, meters, Newtons, ...)
Angles are in degrees.

endheader
time	ground_thorax_rot_x	ground_thorax_rot_y	ground_thorax_rot_z	ground_thorax_tx	ground_thorax_ty	ground_thorax_tz	clav_prot_r	clav_elev_r	scapula_abduction_r	scapula_elevation_r	scapula_upward_rot_r	scapula_winging_r	shoulder_elv_r	plane_of_elev_r	axial_rot_r	elbow_flexion_r	pro_sup_r	wrist_flex_r	wrist_dev_r	clav_prot_l	clav_elev_l	scapula_abduction_l	scapula_elevation_l	scapula_upward_rot_l	scapula_winging_l	shoulder_elv_l	plane_of_elev_l	axial_rot_l	elbow_flexion_l	pro_sup_l	wrist_flex_l	wrist_dev_l
      1.29000000	      2.33707046	      5.00244410	     11.52647419	     -0.11370206	      1.03769900	      0.02921236	      5.76445954	     11.47457386	     20.11911789	      7.47263997	     22.14024206	    -11.05868899	      7.65891754	    -74.52996450	     54.72918860	     52.24366134	    -27.83634950	     70.00000021	    -24.99999983	     11.44162028	     -4.23164298	    -17.08975116	    -21.41617839	    -43.27225276	     -0.32284249	     60.96361416	    -37.75534439	     -3.90818741	     66.28535071	     26.06562826	     -2.80750280	    -24.99999983
      1.30000000	      2.09364747	      5.38088413	     11.35827244	     -0.11380562	      1.03815064	      0.02940592	      5.34002544	     11.04338555	     19.22256658	      7.21506553	     21.87122186	    -10.72056063	      7.50538494	    -74.08439673	     54.53762345	     51.79309096	    -28.30520703	     70.00000021	    -24.99999983	     11.57962323	     -4.38859964	    -17.29571456	    -21.20284857	    -43.14703884	     -0.19371819	     61.30077571	    -37.82459135	     -4.38489433	     65.86062959	     26.14885494	     -3.94340421	    -24.99999983
      1.31000000	      2.06614890	      5.40631071	     11.57947789	     -0.11378652	      1.03774310	      0.02945358	      5.24044169	     11.05801439	     19.02177752	      7.23278738	     21.86692503	    -10.65626917	      7.42450241	    -74.15904335	     54.57148313	     51.78359106	    -28.35655974	     70.00000021	    -24.99999983	     11.52908082	     -4.39343757	    -17.23709780	    -21.24298271	    -43.24153668	     -0.23592541	     61.19218525	    -37.93013868	     -4.31369625	     65.67134578	     26.15293263	     -4.09057548	    -24.99999983
      1.32000000	      2.04518171	      5.43509471	     11.59981025	     -0.11399036	      1.03720890	      0.02938160	      5.23305703	     11.04587433	     19.02098200	      7.21890224	     21.87706024	    -10.66020091	      7.42524506	    -74.13125070	     54.56575039	     51.78949842	    -28.36035087	     70.00000021	    -24.99999983	     11.51745005	     -4.41358075	    -17.22160609	    -21.23186655	    -43.25849639	     -0.24307639	     61.16379831	    -37.91769693	     -4.32193660	     65.66464220	     26.15374321	     -4.09716834	    -24.99999983
      1.33000000	      2.03181856	      5.47658109	     11.68689749	     -0.11406253	      1.03742285	      0.02947970	      5.12109637	     10.90827246	     18.75491141	      7.14599137	     21.76111609	    -10.55236425	      7.43196810	    -73.95855238	     54.44340964	     51.58180143	    -28.53923017	     70.00000021	    -24.99999983	     11.46758973	     -4.55972305	    -17.13446130	    -21.09339436	    -43.25504302	     -0.26620775	     61.11553866	    -37.81685252	     -4.15318667	     65.22637702	     26.13763024	     -4.30893237	    -24.99999983
      1.34000000	      2.01241988	      5.49577960	     11.75266511	     -0.11427077	      1.03695441	      0.02943746	      5.10997024	     10.89328062	     18.76517054	      7.12297162	     21.79126182	    -10.56214508	      7.44670066	    -73.90581224	     54.42573729	     51.59389657	    -28.54720405	     70.00000021	    -24.99999983	     11.46374589	     -4.58190559	    -17.12418937	    -21.06817930	    -43.24565992	     -0.26948362	     61.10773876	    -37.77679543	     -4.15557421	     65.24138423	     26.13464993	     -4.31871779	    -24.99999983
      1.35000000	      1.99715163	      5.50029509	     11.83222221	     -0.11447690	      1.03652791	      0.02942953	      5.09723843	     10.87544089	     18.77106301	      7.09806807	     21.82013085	    -10.56706672	      7.46489445	    -73.84995852	     54.40253101	     51.60244221	    -28.55865551	     70.00000021	    -24.99999983	     11.46049468	     -4.60729293	    -17.11297760	    -21.03498633	    -43.22573012	     -0.26685874	     61.10877503	    -37.72541313	     -4.15119000	     65.25671453	     26.13010466	     -4.33012221	    -24.99999983
      1.36000000	      1.98760970	      5.50473570	     11.90979360	     -0.11462330	      1.03612085	      0.02942993	      5.08303620	     10.85586998	     18.77531460	      7.07163859	     21.84950300	    -10.57208493	      7.48979812	    -73.79025066	     54.37241861	     51.60595074	    -28.57422926	     70.00000021	    -24.99999983	     11.45833751	     -4.63121529	    -17.10332747	    -21.00305604	    -43.20542666	     -0.26535756	     61.11299124	    -37.67763510	     -4.14264873	     65.26775274	     26.12485974	     -4.34241818	    -24.99999983
      1.37000000	      1.61030199	      6.00271029	     11.86253586	     -0.11484198	      1.03617718	      0.02976829	      4.63827923	     10.58420164	     17.38630987	      7.11855538	     21.09877303	    -10.02700573	      7.53951388	    -72.59735231	     54.28896438	     51.43796599	    -31.01880971	     70.00000021	    -24.99999983	     12.00355922	     -4.79196369	    -18.17911880	    -20.98507410	    -43.57009980	      0.17425067	     61.33749183	    -37.40519206	     -4.18698908	     65.20758107	     25.30474891	     -6.82944945	    -24.99999983
      1.38000000	      1.61422618	      5.99675947	     11.92920215	     -0.11490409	      1.03581302	      0.02978195	      4.62665133	     10.57469387	     17.40230882	      7.09609828	     21.14042081	    -10.03826675	      7.56509096	    -72.56091123	     54.27269023	     51.43827270	    -31.02287275	     70.00000021	    -24.99999983	     12.01010654	     -4.80223602	    -18.18394306	    -20.96735949	    -43.55303497	      0.17918617	     61.34121653	    -37.36679011	     -4.18268528	     65.20460331	     25.30043750	     -6.83721069	    -24.99999983
      1.39000000	      1.61911507	      5.96530373	     11.97079509	     -0.11492708	      1.03555271	      0.02978780	      4.60956249	     10.56322699	     17.41972645	      7.06778674	     21.19381779	    -10.04847129	      7.61009319	    -72.51791698	     54.24651776	     51.42408700	    -31.03747903	     70.00000021	    -24.99999983	     12.01924585	     -4.81440959	    -18.20134588	    -20.95397334	    -43.55101615	      0.19375830	     61.33286104	    -37.32881201	     -4.18714859	     65.19399347	     25.29258443	     -6.84877205	    -24.99999983
      1.40000000	      1.65398540	      5.95752768	     11.99544647	     -0.11473313	      1.03524133	      0.02989451	      4.60317036	     10.55007657	     17.43026649	      7.04779563	     21.21980294	    -10.05379195	      7.62811197	    -72.48701525	     54.23481619	     51.42282883	    -31.04379573	     70.00000021	    -24.99999983	     12.02729039	     -4.81065499	    -18.21439372	    -20.95471350	    -43.54566577	      0.19657566	     61.33882154	    -37.32174451	     -4.18591367	     65.19470230	     25.28888817	     -6.85258296	    -24.99999983
      1.41000000	      1.68353315	      5.83705810	     11.91983457	     -0.11467708	      1.03515960	      0.02992509	      4.57985331	     10.52437684	     17.48055087	      6.99029309	     21.32215614	    -10.08103928	      7.74307472	    -72.39667016	     54.19891574	     51.37332120	    -31.10898418	     70.00000021	    -24.99999983	     12.07621498	     -4.83126256	    -18.31475432	    -20.95382623	    -43.59336455	      0.23560993	     61.29874460	    -37.27200732	     -4.23828949	     65.22316751	     25.25320488	     -6.87563412	    -24.99999983
      1.42000000	      1.87228077	      5.99824379	     11.87643283	     -0.11511285	      1.03557195	      0.02978190	      4.48222346	     10.42654940	     17.43300654	      6.86534520	     21.44826827	    -10.07943384	      8.45882277	    -72.41567848	     55.49332385	     51.43736000	    -32.78126779	     70.00000021	    -24.99999983	     12.77834216	     -5.57051192	    -19.89554532	    -20.70974951	    -44.70160237	      0.84609555	     60.82900302	    -36.73484448	     -3.22407441	     65.34068000	     23.77502149	     -7.57868080	    -24.99999983
